<?xml version="1.0" encoding="iso-8859-1"?>
<!-- Generator: Adobe Illustrator 19.0.0, SVG Export Plug-In . SVG Version: 6.00 Build 0)  -->
<svg version="1.1" id="Layer_1" xmlns="http://www.w3.org/2000/svg" xmlns:xlink="http://www.w3.org/1999/xlink" x="0px" y="0px"
	 viewBox="0 0 512 512" style="enable-background:new 0 0 512 512;" xml:space="preserve">
<polygon style="fill:#41362F;" points="20.784,306.525 20.784,333.624 53.465,333.624 64.358,289.862 "/>
<polygon style="fill:#211C1A;" points="144.213,284.737 53.465,300.755 53.465,333.624 144.213,333.624 "/>
<path style="fill:#4cb2b7;" d="M49.796,201.986c-17.544-5.111-28.634-8.349-28.634-8.349S8.17,215.02,8.17,247.903
	s12.614,54.264,12.614,54.264h32.681L49.796,201.986z"/>
<path style="fill:#076165;" d="M349.632,259.996c-0.452,0.197-0.911,0.389-1.367,0.583l77.447,29.882l-30.218-50.498
	C395.492,239.962,361.097,254.987,349.632,259.996z"/>
<path style="fill:#008d94;" d="M269.566,265.253c-30.744-8.28-161.227-46.213-219.77-63.267c-3.813,9.127-8.945,25.247-8.945,45.917
	c0,32.882,12.614,54.264,12.614,54.264h80.087c2.945,0,6.812,0.216,10.662,0.562c3.818,0.343,7.62,0.816,10.494,1.336
	l128.906,23.305c5.771,1.044,15.291,1.898,21.155,1.898h90.725l19.324-49.7l-66.553-18.989
	C327.005,269.563,300.694,273.637,269.566,265.253z"/>
<path style="fill:#076165;" d="M468.553,260.695l-73.059-20.733v34.09l75.655,55.213h32.681c0,0,0-13.176,0-29.28
	C503.83,283.882,487.956,266.201,468.553,260.695z"/>
<path style="fill:#008d94;" d="M458.866,292.134l-63.373-18.081v55.213h75.655v-23.194
	C471.149,297.781,465.24,293.944,458.866,292.134z"/>
<g>
	<path style="fill:#211C1A;" d="M436.383,252.488c-0.09-0.004-0.181-0.004-0.271-0.011
		C436.192,252.482,436.287,252.487,436.383,252.488z"/>
	<path style="fill:#211C1A;" d="M436.868,203.369c-6.131,0-12.02,2.288-16.586,6.441c-0.033,0.029-0.065,0.059-0.097,0.089
		l-16.518,15.524l0.001-1.625l-0.003-20.081c0-0.069-0.001-0.136-0.002-0.204c0.011-0.187,0.017-0.377,0.017-0.568
		c0-13.548-11.022-24.569-24.571-24.569s-24.569,11.022-24.569,24.569c0,6.129,2.288,12.019,6.44,16.583
		c0.029,0.033,0.06,0.065,0.09,0.097l28.468,30.289c1.536,1.597,3.655,2.574,5.951,2.574l30.408,0.005l7.602-0.001
		c1.039,0,1.996-0.001,2.882-0.047c0.161,0.048,0.322,0.059,0.485,0.059c13.548,0,24.569-11.022,24.569-24.569
		C461.437,214.389,450.416,203.369,436.868,203.369z M387.329,223.703l-14.297-15.211c-1.387-1.544-2.15-3.512-2.15-5.546
		c0-4.538,3.692-8.229,8.229-8.229c4.476,0,8.129,3.592,8.228,8.045c-0.007,0.118-0.011,0.235-0.014,0.355
		c-0.001,0.1-0.001,0.202,0,0.302C387.33,204.293,387.33,213.702,387.329,223.703z M437.045,236.164
		c-0.115-0.005-0.232-0.011-0.35-0.013c-0.052-0.001-0.105-0.001-0.157-0.001c-0.048,0-0.096,0-0.143,0.001
		c-0.599,0.003-4.9,0.004-10.497,0.004l-9.788-0.001l15.211-14.297c1.543-1.386,3.51-2.149,5.546-2.149
		c4.537,0,8.229,3.692,8.229,8.229C445.097,232.415,441.501,236.069,437.045,236.164z"/>
</g>
<path d="M470.784,253.108l-23.963-6.801c8.602-3.827,14.616-12.449,14.616-22.455c0-13.547-11.021-24.569-24.569-24.569
	c-6.131,0-12.02,2.288-16.586,6.441c-0.033,0.029-0.065,0.059-0.097,0.089l-16.518,15.525l0.001-1.625l-0.003-20.081
	c0-0.069-0.001-0.136-0.002-0.204c0.011-0.187,0.017-0.377,0.017-0.568c0-13.548-11.022-24.569-24.571-24.569
	s-24.569,11.022-24.569,24.569c0,6.129,2.288,12.019,6.44,16.583c0.029,0.033,0.06,0.065,0.09,0.097l20.532,21.845l-35.243,15.394
	c-23.462,10.249-48.584,11.883-74.671,4.856C232.27,247.018,25.534,186.674,23.45,186.066c-3.551-1.039-7.353,0.44-9.273,3.6
	C13.6,190.621,0,213.405,0,248.175c0,29.16,9.304,49.879,12.614,56.325v25.039c0,4.512,3.657,8.17,8.17,8.17h123.429
	c4.513,0,8.17-3.658,8.17-8.17v-17.313c0.3,0.05,0.589,0.1,0.87,0.15l128.905,23.305c6.288,1.137,16.22,2.027,22.61,2.027H503.83
	c4.513,0,8.17-3.658,8.17-8.17v-29.28C512,280.378,493.896,259.667,470.784,253.108z M431.322,217.772
	c1.543-1.386,3.51-2.149,5.546-2.149c4.537,0,8.229,3.692,8.229,8.229c0,4.477-3.596,8.132-8.051,8.227
	c-0.115-0.005-0.232-0.011-0.35-0.013c-0.052-0.001-0.105-0.001-0.157-0.001c-0.048,0-0.096,0-0.143,0.001
	c-0.599,0.003-4.9,0.004-10.497,0.004l-9.788-0.001L431.322,217.772z M370.882,198.861c0-4.538,3.692-8.229,8.229-8.229
	c4.476,0,8.129,3.592,8.228,8.045c-0.007,0.118-0.011,0.235-0.014,0.355c-0.001,0.1-0.001,0.202,0,0.302
	c0.005,0.876,0.005,10.285,0.004,20.285l-14.297-15.211C371.644,202.863,370.882,200.896,370.882,198.861z M285.066,319.601
	l-128.905-23.305c-6.288-1.137-16.22-2.027-22.61-2.027H86.146c-4.513,0-8.17,3.658-8.17,8.17c0,4.512,3.657,8.17,8.17,8.17h47.406
	c0.764,0,1.602,0.016,2.491,0.047v10.712H28.954V310.61h24.511c4.513,0,8.17-3.658,8.17-8.17c0-4.512-3.657-8.17-8.17-8.17H25.834
	c-3.292-7.278-9.494-23.928-9.494-46.094c0-20.713,5.593-36.613,9.079-44.511c35.723,10.419,206.448,60.17,242.022,69.752
	c29.762,8.014,58.515,6.109,85.46-5.66l34.422-15.035v68.649h-82.555C299.385,321.368,290.363,320.56,285.066,319.601z
	 M495.66,321.368h-91.995v-70.323l62.659,17.782c15.628,4.435,29.336,19.123,29.336,31.431V321.368z"/>
<g>
</g>
<g>
</g>
<g>
</g>
<g>
</g>
<g>
</g>
<g>
</g>
<g>
</g>
<g>
</g>
<g>
</g>
<g>
</g>
<g>
</g>
<g>
</g>
<g>
</g>
<g>
</g>
<g>
</g>
</svg>
